{
  "asset": {
    "version": "2.0",
    "generator": "Sketchup glTF Exporter v1.2.6 by Centaur"
  },
  "scene": 0,
  "scenes": [
    {
      "nodes": [
        0
      ]
    }
  ],
  "samplers": [
    {
    }
  ],
  "nodes": [
    {
      "name": "root",
      "mesh": 0
    }
  ],
  "materials": [
    {
      "pbrMetallicRoughness": {
        "baseColorFactor": [
          0.2176,
          0.2176,
          0.2176,
          1.0
        ],
        "metallicFactor": 0.1,
        "roughnessFactor": 0.9
      },
      "name": "default material",
      "doubleSided": true
    }
  ],
  "meshes": [
    {
      "primitives": [
        {
          "attributes": {
            "POSITION": 0,
            "NORMAL": 1
          },
          "indices": 2,
          "mode": 4,
          "material": 0
        }
      ]
    }
  ],
  "accessors": [
    {
      "bufferView": 0,
      "componentType": 5126,
      "count": 420,
      "type": "VEC3",
      "min": [
        -0.15567152096035414,
        -6.57957142664983e-19,
        -0.019050000000000046
      ],
      "max": [
        0.008384421893440559,
        0.05749553873534156,
        1.5406556958423048e-18
      ]
    },
    {
      "bufferView": 1,
      "componentType": 5126,
      "count": 420,
      "type": "VEC3",
      "min": [
        -0.9999999999999865,
        -1.0,
        -1.0
      ],
      "max": [
        1.0,
        0.9999999999999989,
        1.0
      ]
    },
    {
      "bufferView": 2,
      "componentType": 5123,
      "count": 840,
      "type": "SCALAR"
    }
  ],
  "bufferViews": [
    {
      "buffer": 0,
      "byteLength": 5040,
      "target": 34962,
      "byteStride": 12
    },
    {
      "buffer": 0,
      "byteOffset": 5040,
      "byteLength": 5040,
      "target": 34962,
      "byteStride": 12
    },
    {
      "buffer": 0,
      "byteOffset": 10080,
      "byteLength": 1680,
      "target": 34963
    }
  ],
  "buffers": [
    {
      "uri": "data:application/octet-stream;base64,",
      "byteLength": 11760
    }
  ]
}